<svg xmlns="http://www.w3.org/2000/svg" viewBox="0 0 36 24" width="36" height="24" role="img" aria-label="India">
  <defs>
    <clipPath id="r"><rect width="36" height="24" rx="2.5"/></clipPath>
  </defs>
  <g clip-path="url(#r)">
    <rect width="36" height="8" y="0" fill="#FF9933"/>
    <rect width="36" height="8" y="8" fill="#FFFFFF"/>
    <rect width="36" height="8" y="16" fill="#138808"/>
    <g transform="translate(18 12)" stroke="#000080" stroke-width="0.25" fill="none">
      <circle r="3"/>
      <g>
        <line x1="0" y1="-3" x2="0" y2="3"/>
        <line x1="0" y1="-3" x2="0" y2="3" transform="rotate(15)"/>
        <line x1="0" y1="-3" x2="0" y2="3" transform="rotate(30)"/>
        <line x1="0" y1="-3" x2="0" y2="3" transform="rotate(45)"/>
        <line x1="0" y1="-3" x2="0" y2="3" transform="rotate(60)"/>
        <line x1="0" y1="-3" x2="0" y2="3" transform="rotate(75)"/>
        <line x1="0" y1="-3" x2="0" y2="3" transform="rotate(90)"/>
        <line x1="0" y1="-3" x2="0" y2="3" transform="rotate(105)"/>
        <line x1="0" y1="-3" x2="0" y2="3" transform="rotate(120)"/>
        <line x1="0" y1="-3" x2="0" y2="3" transform="rotate(135)"/>
        <line x1="0" y1="-3" x2="0" y2="3" transform="rotate(150)"/>
        <line x1="0" y1="-3" x2="0" y2="3" transform="rotate(165)"/>
      </g>
      <circle r="0.7" fill="#000080" stroke="none"/>
    </g>
  </g>
</svg>
